<?xml version="1.0" standalone="no"?>
<!DOCTYPE svg PUBLIC "-//W3C//DTD SVG 20010904//EN"
 "http://www.w3.org/TR/2001/REC-SVG-20010904/DTD/svg10.dtd">
<svg version="1.0" xmlns="http://www.w3.org/2000/svg"
 width="1359.000000pt" height="1248.000000pt" viewBox="0 0 1359.000000 1248.000000"
 preserveAspectRatio="xMidYMid meet">

<g transform="translate(0.000000,1248.000000) scale(0.100000,-0.100000)"
fill="#ffffff" stroke="none">
<path d="M4269 11955 c-471 -89 -810 -413 -980 -934 -80 -244 -117 -486 -126
-821 -13 -481 52 -1021 203 -1683 25 -109 43 -201 41 -204 -3 -2 -117 -33
-253 -68 -1573 -401 -2468 -1009 -2629 -1785 -37 -175 -20 -412 42 -597 130
-391 491 -757 1040 -1056 54 -30 186 -99 293 -155 l196 -101 223 425 c122 234
221 427 219 429 -2 1 -122 66 -268 142 -397 209 -525 295 -668 448 -182 194
-175 312 27 516 262 263 754 507 1431 709 226 67 607 163 624 157 6 -3 20 -31
30 -63 42 -134 155 -439 278 -747 l131 -327 -121 -303 c-152 -379 -226 -580
-340 -927 -608 -1846 -665 -3283 -157 -3995 185 -261 461 -438 763 -490 100
-18 308 -20 419 -4 257 36 545 148 848 330 136 82 616 418 622 434 2 8 -516
748 -543 775 -6 6 -82 -42 -194 -122 -284 -201 -414 -285 -545 -349 -205 -99
-339 -132 -449 -109 -48 10 -66 20 -102 57 -107 110 -174 348 -194 686 -29
514 85 1260 315 2057 65 226 233 737 244 744 4 3 45 -66 91 -152 582 -1097
1257 -2091 1949 -2867 156 -175 508 -527 657 -657 648 -564 1208 -838 1714
-838 571 0 1000 339 1200 949 259 790 119 2073 -395 3616 -150 450 -296 827
-545 1402 l-144 332 -34 -14 c-39 -17 -846 -368 -849 -370 -2 -1 62 -150 141
-331 522 -1200 826 -2196 945 -3093 49 -367 54 -810 13 -1041 -46 -253 -117
-405 -216 -462 -34 -19 -55 -23 -121 -22 -106 1 -213 31 -363 104 -856 415
-1987 1742 -2942 3455 -143 257 -414 785 -529 1033 l-81 173 66 142 c108 234
401 806 538 1053 l129 232 56 6 c122 13 1198 19 1476 7 599 -25 1130 -74 1646
-151 1391 -208 2490 -605 2899 -1047 127 -137 156 -249 95 -362 -65 -119 -251
-283 -468 -412 -152 -90 -317 -168 -643 -304 l-292 -121 184 -444 c101 -245
188 -444 193 -443 11 3 435 178 546 226 906 390 1429 929 1474 1520 60 773
-603 1424 -1923 1889 -439 154 -1042 305 -1609 403 -846 145 -1713 215 -2820
228 l-188 2 130 182 c228 320 438 589 677 868 153 178 505 538 659 674 531
470 1014 703 1217 589 61 -35 127 -141 167 -273 55 -178 73 -402 80 -1022 l1
-53 481 0 482 0 -6 378 c-5 403 -17 544 -63 772 -138 674 -528 1099 -1084
1181 -117 17 -348 7 -480 -21 -478 -101 -993 -413 -1575 -956 -591 -552 -1240
-1369 -1818 -2291 l-58 -92 -52 -5 c-29 -4 -124 -13 -212 -21 -134 -13 -508
-58 -675 -81 l-46 -6 -42 178 c-136 580 -193 996 -194 1414 0 296 22 469 83
658 54 163 131 250 237 267 86 14 274 -36 427 -112 58 -30 400 -226 511 -294
l32 -19 235 402 c130 222 238 410 242 418 4 12 -54 50 -237 157 -323 188 -335
194 -468 251 -136 58 -280 106 -405 134 -121 26 -407 34 -516 13z m566 -3930
c332 -87 486 -492 297 -780 -102 -156 -253 -238 -437 -237 -290 1 -515 222
-515 507 0 107 11 159 50 240 57 118 168 215 299 261 80 28 215 32 306 9z"/>
</g>
</svg>
